# xmcd
# 
# Track frame offsets:
#     150
#     16021
#     32442
#     56049
#     75880
#     94650
#     113444
#     134451
#     149539
#     160052
#     175157
#     190273
#     203476
#     213310
#     222032
#     238887
#     253210
#     265882
#     280167
#     293860
#     316711
# 
# Disc length: 4795
# 
# Revision: 0
# Processed by: cddbd v1.5.2PL0 Copyright (c) Steve Scherf et al.
# Submitted via: fre:ac v1.0.27
# 
DISCID=2112b915
DTITLE=Various Artist - The Best Christmas Album in the World . . . Ever! Disc 2
DYEAR=0
DGENRE=
TTITLE0=John and Yoko - Happy Xmas (War is Over)
TTITLE1=Cliff Richard - Santa's List
TTITLE2=Liz Mitchell - Mary's Boy Child/Oh my lord
TTITLE3=Wham! - Last Christmas
TTITLE4=Elton John - Step into Christmas
TTITLE5=Darlene Love - All Alone on Christmas
TTITLE6=Roy Wood and Wizzard - I wish it could be Christmas every day
TTITLE7=George Thorogood - Rock and Roll Christmas
TTITLE8=The Beach Boys - Merry Christmas Baby
TTITLE9=Diana Ross - Winter Wonderland
TTITLE10=The Bellamy Brothers - Rudolph the red nosed Reindeer
TTITLE11=Jona Lewie - Stop the Cavalry
TTITLE12=Bobby Helms - Jingle Bell Rock
TTITLE13=Dean Martin - Let it snow, let it snow, let it snow
TTITLE14=Johnny Mathis - When a Child is Born
TTITLE15=Jim Reeves - Blue Christmas
TTITLE16=Roy Orbison - Pretty Paper
TTITLE17=Nat King Cole - The Christmas Song
TTITLE18=Bing Crosby - White Christmas
TTITLE19=Andy Williams - It's the Most Wonderful Time of the Year
TTITLE20=Data Track - Data track
EXTD=
EXTT0=
EXTT1=
EXTT2=
EXTT3=
EXTT4=
EXTT5=
EXTT6=
EXTT7=
EXTT8=
EXTT9=
EXTT10=
EXTT11=
EXTT12=
EXTT13=
EXTT14=
EXTT15=
EXTT16=
EXTT17=
EXTT18=
EXTT19=
EXTT20=
PLAYORDER=
